Coordinates
version=1
nRows=16
nColumns=40
inDegrees=yes

Units are S.I. units (second, meters, Newtons, ...)
If the header above contains a line with 'inDegrees', this indicates whether rotational values are in degrees (yes) or radians (no).

endheader
time	pelvis_tilt	pelvis_list	pelvis_rotation	pelvis_tx	pelvis_ty	pelvis_tz	hip_flexion_r	hip_adduction_r	hip_rotation_r	knee_angle_r	knee_angle_r_beta	ankle_angle_r	subtalar_angle_r	mtp_angle_r	hip_flexion_l	hip_adduction_l	hip_rotation_l	knee_angle_l	knee_angle_l_beta	ankle_angle_l	subtalar_angle_l	mtp_angle_l	lumbar_extension	lumbar_bending	lumbar_rotation	arm_flex_r	arm_add_r	arm_rot_r	elbow_flex_r	pro_sup_r	wrist_flex_r	wrist_dev_r	arm_flex_l	arm_add_l	arm_rot_l	elbow_flex_l	pro_sup_l	wrist_flex_l	wrist_dev_l
      2.26500000	    -10.25190955	     -5.16470928	     -0.51534437	      0.14853574	      0.46038846	     -1.21206925	     92.82426107	    -46.27712530	      7.29063411	    120.66028112	      2.10591918	     37.83749877	      6.94580994	      0.00000000	    108.83909371	    -45.86778134	     24.78316437	    121.09362652	      2.11348249	     37.18334733	     17.04053756	      0.00000000	    -33.12975757	      3.45232673	     -0.09837567	     44.99987282	    -15.00000023	     44.99987282	     75.00017585	     45.00000026	      0.00000000	      0.00000000	     44.99987282	    -15.00000023	     44.99987282	     75.00017585	     45.00000026	      0.00000000	      0.00000000
      2.27000000	    -10.68022695	     -5.17122400	     -0.57181054	      0.14829601	      0.46354319	     -1.21179792	     92.64181753	    -46.17704110	      6.69619053	    120.17481782	      2.09744625	     37.69887327	      7.03788664	      0.00000000	    108.65807320	    -45.90389491	     24.27138927	    120.58607148	      2.10462398	     37.04737252	     17.12252042	      0.00000000	    -32.56079005	      3.44093792	     -0.08603544	     44.99987283	    -15.00000023	     44.99987283	     75.00017585	     45.00000026	      0.00000000	      0.00000000	     44.99987283	    -15.00000023	     44.99987283	     75.00017585	     45.00000026	      0.00000000	      0.00000000
      2.27500000	    -11.10369600	     -5.18689721	     -0.63016762	      0.14804173	      0.46679809	     -1.21152428	     92.42265736	    -46.05110059	      6.07294828	    119.66538710	      2.08855501	     37.57310588	      7.04999073	      0.00000000	    108.44693275	    -45.92827999	     23.74598278	    120.05092881	      2.09528398	     36.91070802	     17.08101823	      0.00000000	    -31.99772397	      3.43807857	     -0.07081178	     44.99987284	    -15.00000023	     44.99987284	     75.00017585	     45.00000026	      0.00000000	      0.00000000	     44.99987284	    -15.00000023	     44.99987284	     75.00017585	     45.00000026	      0.00000000	      0.00000000
      2.28000000	    -11.52099205	     -5.19202428	     -0.68680251	      0.14790684	      0.47005969	     -1.21121241	     92.20344455	    -45.94801657	      5.46950286	    119.16612188	      2.07984118	     37.44804142	      7.05994804	      0.00000000	    108.24279938	    -45.97903806	     23.21673536	    119.52819663	      2.08616058	     36.77603004	     17.03309558	      0.00000000	    -31.41364319	      3.41665619	     -0.05743810	     44.99987285	    -15.00000023	     44.99987285	     75.00017585	     45.00000026	      0.00000000	      0.00000000	     44.99987285	    -15.00000023	     44.99987285	     75.00017585	     45.00000026	      0.00000000	      0.00000000
      2.28500000	    -11.94892505	     -5.20515701	     -0.75167189	      0.14767850	      0.47344375	     -1.21091011	     91.96319951	    -45.79688136	      4.83128850	    118.64077757	      2.07067220	     37.31307949	      7.03186578	      0.00000000	    108.00100985	    -45.99542917	     22.66697819	    118.97713682	      2.07654277	     36.62420296	     16.93241639	      0.00000000	    -30.82932353	      3.40836939	     -0.04479922	     44.99987286	    -15.00000023	     44.99987286	     75.00017585	     45.00000026	      0.00000000	      0.00000000	     44.99987286	    -15.00000023	     44.99987286	     75.00017585	     45.00000026	      0.00000000	      0.00000000
      2.29000000	    -11.95580998	     -5.39668892	     -0.75107552	      0.14715141	      0.47826453	     -1.21086966	     90.86564557	    -45.63444376	      3.65421375	    117.92207347	      2.05812844	     36.94840133	      6.16563448	      0.00000000	    107.36749046	    -45.93283281	     22.14583616	    118.31205017	      2.06493482	     36.21471835	     16.00896940	      0.00000000	    -30.81932179	      3.62934666	      0.13289943	     44.99987293	    -15.00000023	     44.99987293	     75.00017585	     45.00000026	      0.00000000	      0.00000000	     44.99987293	    -15.00000023	     44.99987293	     75.00017585	     45.00000026	      0.00000000	      0.00000000
      2.29500000	    -12.39448096	     -5.40422320	     -0.81682345	      0.14713007	      0.48157841	     -1.21053804	     90.66109520	    -45.51687082	      3.05246311	    117.41171945	      2.04922108	     36.84312036	      6.28013166	      0.00000000	    107.15444206	    -45.98545461	     21.63250048	    117.77005627	      2.05547524	     36.11717828	     16.10199154	      0.00000000	    -30.18398618	      3.61696056	      0.13907826	     44.99987294	    -15.00000023	     44.99987294	     75.00017585	     45.00000026	      0.00000000	      0.00000000	     44.99987294	    -15.00000023	     44.99987294	     75.00017585	     45.00000026	      0.00000000	      0.00000000
      2.30000000	    -12.83062334	     -5.41602349	     -0.87836509	      0.14705243	      0.48500878	     -1.21018890	     90.41752032	    -45.35797587	      2.43839738	    116.86662587	      2.03970741	     36.72549528	      6.33075448	      0.00000000	    106.91116096	    -46.01451489	     21.10754255	    117.19640058	      2.04546306	     35.99607366	     16.10604020	      0.00000000	    -29.54725322	      3.60400192	      0.14825417	     44.99987295	    -15.00000023	     44.99987295	     75.00017585	     45.00000026	      0.00000000	      0.00000000	     44.99987295	    -15.00000023	     44.99987295	     75.00017585	     45.00000026	      0.00000000	      0.00000000
      2.30500000	    -13.24907101	     -5.43419920	     -0.94791695	      0.14692603	      0.48858566	     -1.20984125	     90.13582514	    -45.17433258	      1.79477766	    116.30723880	      2.02994426	     36.59199653	      6.31757908	      0.00000000	    106.63598178	    -46.03395398	     20.56688859	    116.60971461	      2.03522346	     35.85068730	     16.03327120	      0.00000000	    -28.93021702	      3.59807289	      0.16107173	     44.99987296	    -15.00000023	     44.99987296	     75.00017585	     45.00000026	      0.00000000	      0.00000000	     44.99987296	    -15.00000023	     44.99987296	     75.00017585	     45.00000026	      0.00000000	      0.00000000
      2.31000000	    -13.63509257	     -5.46123045	     -1.01412673	      0.14680767	      0.49229087	     -1.20949574	     89.78886875	    -44.98130354	      1.12818218	    115.71273922	      2.01956829	     36.43659055	      6.21903389	      0.00000000	    106.32360572	    -46.05367048	     20.02836281	    115.99036210	      2.02441372	     35.67775832	     15.86991053	      0.00000000	    -28.36163183	      3.60232911	      0.18303310	     44.99987297	    -15.00000023	     44.99987297	     75.00017585	     45.00000026	      0.00000000	      0.00000000	     44.99987297	    -15.00000023	     44.99987297	     75.00017585	     45.00000026	      0.00000000	      0.00000000
      2.31500000	    -13.37463615	     -5.72404276	     -1.02037090	      0.14654453	      0.49812714	     -1.20941743	     88.19444294	    -44.76414188	     -0.25560041	    114.88810657	      2.00517573	     36.02487743	      5.28813278	      0.00000000	    105.37564286	    -46.09713823	     19.54129049	    115.22741677	      2.01109781	     35.28590892	     15.06658646	      0.00000000	    -28.67099222	      3.89546836	      0.42605414	     44.99987306	    -15.00000023	     44.99987306	     75.00017585	     45.00000026	      0.00000000	      0.00000000	     44.99987306	    -15.00000023	     44.99987306	     75.00017585	     45.00000026	      0.00000000	      0.00000000
      2.32000000	    -13.81300094	     -5.73772760	     -1.08133182	      0.14662304	      0.50162906	     -1.20907060	     87.94218494	    -44.60586766	     -0.86094348	    114.32255627	      1.99530502	     35.91998254	      5.41658091	      0.00000000	    105.13084665	    -46.12732243	     19.03122338	    114.64989668	      2.00101818	     35.18221719	     15.16822761	      0.00000000	    -27.96287476	      3.87477835	      0.43673504	     44.99987307	    -15.00000023	     44.99987307	     75.00017585	     45.00000026	      0.00000000	      0.00000000	     44.99987307	    -15.00000023	     44.99987307	     75.00017585	     45.00000026	      0.00000000	      0.00000000
      2.32500000	    -13.77629308	     -5.95281545	     -1.10292620	      0.14659466	      0.50675971	     -1.20892988	     86.71746172	    -44.39099993	     -2.01361506	    113.55638124	      1.98193274	     35.70246727	      5.01374013	      0.00000000	    104.43017477	    -46.17558090	     18.60027625	    113.92553073	      1.98837561	     34.93633216	     14.77951587	      0.00000000	    -27.93154873	      4.11483852	      0.60578289	     44.99987317	    -15.00000022	     44.99987317	     75.00017585	     45.00000026	      0.00000000	      0.00000000	     44.99987317	    -15.00000022	     44.99987317	     75.00017585	     45.00000026	      0.00000000	      0.00000000
      2.33000000	    -14.22798112	     -5.96404061	     -1.16314106	      0.14671452	      0.51031894	     -1.20854919	     86.47904504	    -44.21248033	     -2.60633875	    112.98181709	      1.97190470	     35.58694639	      5.13583834	      0.00000000	    104.18249742	    -46.19895128	     18.08216627	    113.32835404	      1.97795291	     34.82070071	     14.88046251	      0.00000000	    -27.18998031	      4.09512751	      0.60828648	     44.99987317	    -15.00000022	     44.99987317	     75.00017585	     45.00000026	      0.00000000	      0.00000000	     44.99987317	    -15.00000022	     44.99987317	     75.00017585	     45.00000026	      0.00000000	      0.00000000
      2.33500000	    -14.66247311	     -5.98032339	     -1.22602206	      0.14683796	      0.51400621	     -1.20815789	     86.19935817	    -44.00682513	     -3.20943671	    112.38489475	      1.96148644	     35.45630112	      5.18283676	      0.00000000	    103.90129550	    -46.23104604	     17.54732142	    112.70089318	      1.96700166	     34.67962219	     14.89387589	      0.00000000	    -26.47611538	      4.09371413	      0.60669083	     44.99987318	    -15.00000022	     44.99987318	     75.00017585	     45.00000026	      0.00000000	      0.00000000	     44.99987318	    -15.00000022	     44.99987318	     75.00017585	     45.00000026	      0.00000000	      0.00000000
      2.34000000	    -15.06576463	     -6.00244728	     -1.28968980	      0.14692094	      0.51783804	     -1.20776776	     85.87592884	    -43.78130051	     -3.82988656	    111.76484700	      1.95066457	     35.30742283	      5.16483358	      0.00000000	    103.58284365	    -46.26278795	     17.00299471	    112.05260998	      1.95568698	     34.51418914	     14.84238906	      0.00000000	    -25.79507450	      4.09549357	      0.60773038	     44.99987319	    -15.00000022	     44.99987319	     75.00017585	     45.00000026	      0.00000000	      0.00000000	     44.99987319	    -15.00000022	     44.99987319	     75.00017585	     45.00000026	      0.00000000	      0.00000000
